<svg xmlns="http://www.w3.org/2000/svg" viewBox="0 0 24 24">
  <path fill="#1D9BF0" d="M22.25 12c0-1.43-.88-2.67-2.19-3.34.46-1.39.2-2.9-.81-3.91s-2.52-1.27-3.91-.81c-.66-1.31-1.91-2.19-3.34-2.19s-2.67.88-3.33 2.19c-1.4-.46-2.91-.2-3.92.81s-1.26 2.52-.8 3.91C3.13 9.33 2.25 10.57 2.25 12s.88 2.67 2.19 3.34c-.46 1.39-.2 2.9.81 3.91s2.52 1.26 3.91.8c.66 1.31 1.9 2.19 3.33 2.19s2.68-.88 3.34-2.19c1.39.46 2.9.2 3.91-.81s1.27-2.52.81-3.91c1.31-.67 2.19-1.91 2.19-3.34z"/>
  <path fill="#fff" d="M9.89 16.11 6.28 12.5l1.06-1.06 2.55 2.55 5.77-5.77 1.06 1.06z" transform="translate(0.44, 0)"/>
</svg>
