<svg xmlns="http://www.w3.org/2000/svg" viewBox="0 0 200 200" fill="none">
  <!-- Notebook -->
  <rect x="38" y="30" width="100" height="130" rx="10" fill="#ffffff" stroke="#d8e3ef" stroke-width="1.8"/>
  <!-- Spine -->
  <rect x="38" y="30" width="14" height="130" rx="6" fill="#e4ecf5"/>
  <!-- Lines -->
  <rect x="62" y="55" width="62" height="5" rx="2.5" fill="#edf3f9"/>
  <rect x="62" y="68" width="54" height="5" rx="2.5" fill="#edf3f9"/>
  <rect x="62" y="81" width="58" height="5" rx="2.5" fill="#edf3f9"/>
  <rect x="62" y="94" width="44" height="5" rx="2.5" fill="#f0f5fa"/>
  <rect x="62" y="107" width="50" height="5" rx="2.5" fill="#f0f5fa"/>
  <rect x="62" y="120" width="36" height="5" rx="2.5" fill="#f4f7fb"/>
  <!-- Pen -->
  <g transform="translate(128,56) rotate(38)">
    <rect x="-4" y="-22" width="8" height="30" rx="2" fill="#2c79e8" opacity="0.85"/>
    <polygon points="0,10 -4,8 4,8" fill="#2c79e8" opacity="0.6"/>
    <rect x="-4" y="-26" width="8" height="5" rx="1.5" fill="#5b9df5"/>
    <rect x="-4" y="-22" width="8" height="5" rx="0" fill="#7ab3f7" opacity="0.5"/>
  </g>
  <!-- Sparkle dots -->
  <circle cx="152" cy="110" r="3.5" fill="#2c79e8" opacity="0.2"/>
  <circle cx="162" cy="125" r="2" fill="#2c79e8" opacity="0.15"/>
  <circle cx="148" cy="130" r="2.5" fill="#2c79e8" opacity="0.12"/>
</svg>
